<svg width="36" height="36" viewBox="0 0 36 36" fill="none" xmlns="http://www.w3.org/2000/svg">
<g clip-path="url(#clip0_162_6167)">
<path d="M34.3723 16.4355H26.938L20.14 5.92305C19.8451 5.47435 19.3485 5.25 18.8518 5.25C18.3552 5.25 17.8585 5.47435 17.5636 5.93908L10.7656 16.4355H3.33129C2.47766 16.4355 1.77924 17.1566 1.77924 18.038C1.77924 18.1822 1.79476 18.3265 1.84132 18.4707L5.78353 33.326C6.1405 34.6721 7.33558 35.6656 8.76347 35.6656H28.9402C30.368 35.6656 31.5631 34.6721 31.9356 33.326L35.8778 18.4707L35.9244 18.038C35.9244 17.1566 35.226 16.4355 34.3723 16.4355ZM18.8518 9.70497L23.1976 16.4355H14.5061L18.8518 9.70497ZM28.9402 32.4606L8.77899 32.4766L5.36448 19.6405H32.3547L28.9402 32.4606ZM18.8518 22.8455C17.1446 22.8455 15.7477 24.2878 15.7477 26.0506C15.7477 27.8133 17.1446 29.2556 18.8518 29.2556C20.5591 29.2556 21.9559 27.8133 21.9559 26.0506C21.9559 24.2878 20.5591 22.8455 18.8518 22.8455Z" fill="#BDBDBD"/>
</g>
<defs>
<clipPath id="clip0_162_6167">
<rect width="35.6297" height="34.7607" fill="white" transform="translate(0.294678 0.904297)"/>
</clipPath>
</defs>
</svg>
