<svg width="40" height="41" viewBox="0 0 40 41" fill="none" xmlns="http://www.w3.org/2000/svg">
<rect width="40" height="41" rx="20" fill="#EB5757"/>
<g clip-path="url(#clip0_148_2329)">
<path d="M33.606 15.2972H26.9291L20.8236 5.6196C20.5588 5.20653 20.1127 5 19.6666 5C19.2206 5 18.7745 5.20653 18.5097 5.63435L12.4042 15.2972H5.72725C4.96059 15.2972 4.33331 15.961 4.33331 16.7724C4.33331 16.9052 4.34725 17.0379 4.38907 17.1707L7.92968 30.8462C8.25028 32.0854 9.32362 33 10.606 33H28.7273C30.0097 33 31.083 32.0854 31.4176 30.8462L34.9582 17.1707L35 16.7724C35 15.961 34.3727 15.2972 33.606 15.2972ZM19.6666 9.10116L23.5697 15.2972H15.7636L19.6666 9.10116ZM28.7273 30.0495L10.62 30.0643L7.55331 18.2476H31.7939L28.7273 30.0495ZM19.6666 21.1981C18.1333 21.1981 16.8788 22.5258 16.8788 24.1486C16.8788 25.7713 18.1333 27.0991 19.6666 27.0991C21.2 27.0991 22.4545 25.7713 22.4545 24.1486C22.4545 22.5258 21.2 21.1981 19.6666 21.1981Z" fill="white"/>
</g>
<defs>
<clipPath id="clip0_148_2329">
<rect width="32" height="32" fill="white" transform="translate(3 1)"/>
</clipPath>
</defs>
</svg>
