<svg class="svg-icon" style="width: 1.0068359375em; height: 1em;vertical-align: middle;fill: currentColor;overflow: hidden;" viewBox="0 0 1031 1024" version="1.1" xmlns="http://www.w3.org/2000/svg"><path d="M62.464704 985.003179c-11.044533 0-19.997344-8.953811-19.997344-19.997344V48.158604c0-16.539803 13.456213-29.996016 29.996016-29.996016h758.568253c16.539803 0 29.996016 13.456213 29.996016 29.996016v475.592835c0 11.044533-8.953811 19.997344-19.997344 19.997344-11.044533 0-19.997344-8.952811-19.997344-19.997344V58.157276H82.462048v906.848559c0 11.044533-8.952811 19.997344-19.997344 19.997344z"  /><path d="M648.879821 229.606505H185.455369c-11.044533 0-19.997344-8.952811-19.997344-19.997344 0-11.043533 8.952811-19.997344 19.997344-19.997344h463.424452c11.044533 0 19.997344 8.953811 19.997344 19.997344 0 11.044533-8.952811 19.997344-19.997344 19.997344zM588.431849 431.094745H185.455369c-11.044533 0-19.997344-8.952811-19.997344-19.997344 0-11.043533 8.952811-19.997344 19.997344-19.997344h402.97648c11.044533 0 19.997344 8.953811 19.997344 19.997344 0 11.044533-8.952811 19.997344-19.997344 19.997344zM467.537905 632.584985H185.455369c-11.044533 0-19.997344-8.952811-19.997344-19.997344 0-11.043533 8.952811-19.997344 19.997344-19.997344H467.537905c11.044533 0 19.997344 8.953811 19.997344 19.997344 0 11.044533-8.952811 19.997344-19.997344 19.997344zM813.622941 1012.203567c-109.62844 0-198.817595-89.189155-198.817595-198.817595S703.994501 614.568378 813.622941 614.568378s198.817595 89.190154 198.817594 198.818594-89.188155 198.816595-198.817594 198.816595z m0-357.640501c-87.575369 0-158.822906 71.247537-158.822907 158.823906 0 87.575369 71.247537 158.822906 158.822907 158.822906 87.575369 0 158.822906-71.247537 158.822906-158.822906 0.001-87.576369-71.246538-158.823906-158.822906-158.823906z"  /><path d="M775.834959 919.015943a19.922354 19.922354 0 0 1-13.182249-4.96734l-74.61409-65.481303c-8.300898-7.285032-9.124788-19.919354-1.839756-28.220252s19.919354-9.124788 28.221252-1.839756l74.61409 65.480303c8.300898 7.285032 9.124788 19.919354 1.839756 28.221252a19.95335 19.95335 0 0 1-15.039003 6.807096z"  /><path d="M775.83196 919.015943c-4.454408 0-8.935813-1.479803-12.65132-4.520399-8.547865-6.993071-9.807697-19.592398-2.813626-28.140263L896.370951 720.130358c6.994071-8.547865 19.592398-9.807697 28.140262-2.813627s9.807697 19.592398 2.813627 28.140263L791.320903 911.680917c-3.953475 4.831358-9.697712 7.335026-15.488943 7.335026zM575.611552 985.003179H72.463376c-16.539803 0-29.996016-13.456213-29.996016-29.996016V48.158604c0-16.539803 13.456213-29.996016 29.996016-29.996016h758.568253c16.539803 0 29.996016 13.456213 29.996016 29.996016v475.592835c0 11.044533-8.953811 19.997344-19.997344 19.997344-11.044533 0-19.997344-8.952811-19.997344-19.997344V58.157276H82.462048v886.851215h493.148504c11.044533 0 19.997344 8.953811 19.997344 19.997344s-8.951811 19.997344-19.996344 19.997344z"  /><path d="M648.879821 229.606505H185.455369c-11.044533 0-19.997344-8.952811-19.997344-19.997344 0-11.043533 8.952811-19.997344 19.997344-19.997344h463.424452c11.044533 0 19.997344 8.953811 19.997344 19.997344 0 11.044533-8.952811 19.997344-19.997344 19.997344zM588.431849 431.094745H185.455369c-11.044533 0-19.997344-8.952811-19.997344-19.997344 0-11.043533 8.952811-19.997344 19.997344-19.997344h402.97648c11.044533 0 19.997344 8.953811 19.997344 19.997344 0 11.044533-8.952811 19.997344-19.997344 19.997344zM467.537905 632.584985H185.455369c-11.044533 0-19.997344-8.952811-19.997344-19.997344 0-11.043533 8.952811-19.997344 19.997344-19.997344H467.537905c11.044533 0 19.997344 8.953811 19.997344 19.997344 0 11.044533-8.952811 19.997344-19.997344 19.997344zM813.622941 1012.203567c-109.62844 0-198.817595-89.189155-198.817595-198.817595S703.994501 614.568378 813.622941 614.568378s198.817595 89.190154 198.817594 198.818594-89.188155 198.816595-198.817594 198.816595z m0-357.640501c-87.575369 0-158.822906 71.247537-158.822907 158.823906 0 87.575369 71.247537 158.822906 158.822907 158.822906 87.575369 0 158.822906-71.247537 158.822906-158.822906 0.001-87.576369-71.246538-158.823906-158.822906-158.823906z"  /><path d="M775.834959 919.015943a19.922354 19.922354 0 0 1-13.182249-4.96734l-74.61409-65.481303c-8.300898-7.285032-9.124788-19.919354-1.839756-28.220252s19.919354-9.124788 28.221252-1.839756l74.61409 65.480303c8.300898 7.285032 9.124788 19.919354 1.839756 28.221252a19.95335 19.95335 0 0 1-15.039003 6.807096z"  /><path d="M775.83196 919.015943c-4.454408 0-8.935813-1.479803-12.65132-4.520399-8.547865-6.993071-9.807697-19.592398-2.813626-28.140263L896.370951 720.130358c6.994071-8.547865 19.592398-9.807697 28.140262-2.813627s9.807697 19.592398 2.813627 28.140263L791.320903 911.680917c-3.953475 4.831358-9.697712 7.335026-15.488943 7.335026zM62.464704 985.003179c-11.044533 0-19.997344-8.953811-19.997344-19.997344V48.158604c0-16.539803 13.456213-29.996016 29.996016-29.996016h758.568253c16.539803 0 29.996016 13.456213 29.996016 29.996016v475.592835c0 11.044533-8.953811 19.997344-19.997344 19.997344-11.044533 0-19.997344-8.952811-19.997344-19.997344V58.157276H82.462048v906.848559c0 11.044533-8.952811 19.997344-19.997344 19.997344z"  /><path d="M648.879821 229.606505H185.455369c-11.044533 0-19.997344-8.952811-19.997344-19.997344 0-11.043533 8.952811-19.997344 19.997344-19.997344h463.424452c11.044533 0 19.997344 8.953811 19.997344 19.997344 0 11.044533-8.952811 19.997344-19.997344 19.997344zM588.431849 431.094745H185.455369c-11.044533 0-19.997344-8.952811-19.997344-19.997344 0-11.043533 8.952811-19.997344 19.997344-19.997344h402.97648c11.044533 0 19.997344 8.953811 19.997344 19.997344 0 11.044533-8.952811 19.997344-19.997344 19.997344zM467.537905 632.584985H185.455369c-11.044533 0-19.997344-8.952811-19.997344-19.997344 0-11.043533 8.952811-19.997344 19.997344-19.997344H467.537905c11.044533 0 19.997344 8.953811 19.997344 19.997344 0 11.044533-8.952811 19.997344-19.997344 19.997344zM813.622941 1012.203567c-109.62844 0-198.817595-89.189155-198.817595-198.817595S703.994501 614.568378 813.622941 614.568378s198.817595 89.190154 198.817594 198.818594-89.188155 198.816595-198.817594 198.816595z m0-357.640501c-87.575369 0-158.822906 71.247537-158.822907 158.823906 0 87.575369 71.247537 158.822906 158.822907 158.822906 87.575369 0 158.822906-71.247537 158.822906-158.822906 0.001-87.576369-71.246538-158.823906-158.822906-158.823906z"  /><path d="M775.834959 919.015943a19.922354 19.922354 0 0 1-13.182249-4.96734l-74.61409-65.481303c-8.300898-7.285032-9.124788-19.919354-1.839756-28.220252s19.919354-9.124788 28.221252-1.839756l74.61409 65.480303c8.300898 7.285032 9.124788 19.919354 1.839756 28.221252a19.95335 19.95335 0 0 1-15.039003 6.807096z"  /><path d="M775.83196 919.015943c-4.454408 0-8.935813-1.479803-12.65132-4.520399-8.547865-6.993071-9.807697-19.592398-2.813626-28.140263L896.370951 720.130358c6.994071-8.547865 19.592398-9.807697 28.140262-2.813627s9.807697 19.592398 2.813627 28.140263L791.320903 911.680917c-3.953475 4.831358-9.697712 7.335026-15.488943 7.335026zM575.611552 985.003179H72.463376c-16.539803 0-29.996016-13.456213-29.996016-29.996016V48.158604c0-16.539803 13.456213-29.996016 29.996016-29.996016h758.568253c16.539803 0 29.996016 13.456213 29.996016 29.996016v475.592835c0 11.044533-8.953811 19.997344-19.997344 19.997344-11.044533 0-19.997344-8.952811-19.997344-19.997344V58.157276H82.462048v886.851215h493.148504c11.044533 0 19.997344 8.953811 19.997344 19.997344s-8.951811 19.997344-19.996344 19.997344z"  /><path d="M648.879821 229.606505H185.455369c-11.044533 0-19.997344-8.952811-19.997344-19.997344 0-11.043533 8.952811-19.997344 19.997344-19.997344h463.424452c11.044533 0 19.997344 8.953811 19.997344 19.997344 0 11.044533-8.952811 19.997344-19.997344 19.997344zM588.431849 431.094745H185.455369c-11.044533 0-19.997344-8.952811-19.997344-19.997344 0-11.043533 8.952811-19.997344 19.997344-19.997344h402.97648c11.044533 0 19.997344 8.953811 19.997344 19.997344 0 11.044533-8.952811 19.997344-19.997344 19.997344zM467.537905 632.584985H185.455369c-11.044533 0-19.997344-8.952811-19.997344-19.997344 0-11.043533 8.952811-19.997344 19.997344-19.997344H467.537905c11.044533 0 19.997344 8.953811 19.997344 19.997344 0 11.044533-8.952811 19.997344-19.997344 19.997344zM813.622941 1012.203567c-109.62844 0-198.817595-89.189155-198.817595-198.817595S703.994501 614.568378 813.622941 614.568378s198.817595 89.190154 198.817594 198.818594-89.188155 198.816595-198.817594 198.816595z m0-357.640501c-87.575369 0-158.822906 71.247537-158.822907 158.823906 0 87.575369 71.247537 158.822906 158.822907 158.822906 87.575369 0 158.822906-71.247537 158.822906-158.822906 0.001-87.576369-71.246538-158.823906-158.822906-158.823906z"  /><path d="M775.834959 919.015943a19.922354 19.922354 0 0 1-13.182249-4.96734l-74.61409-65.481303c-8.300898-7.285032-9.124788-19.919354-1.839756-28.220252s19.919354-9.124788 28.221252-1.839756l74.61409 65.480303c8.300898 7.285032 9.124788 19.919354 1.839756 28.221252a19.95335 19.95335 0 0 1-15.039003 6.807096z"  /><path d="M775.83196 919.015943c-4.454408 0-8.935813-1.479803-12.65132-4.520399-8.547865-6.993071-9.807697-19.592398-2.813626-28.140263L896.370951 720.130358c6.994071-8.547865 19.592398-9.807697 28.140262-2.813627s9.807697 19.592398 2.813627 28.140263L791.320903 911.680917c-3.953475 4.831358-9.697712 7.335026-15.488943 7.335026z"  /></svg>