<svg width="24" height="24" viewBox="0 0 24 24" fill="none" xmlns="http://www.w3.org/2000/svg">
<g clip-path="url(#clip0_135_280)">
<path d="M17.7116 6.29826C17.3271 5.91373 16.7059 5.91373 16.3214 6.29826L11.5 11.1098L6.67861 6.2884C6.29408 5.90387 5.67292 5.90387 5.2884 6.2884C4.90387 6.67292 4.90387 7.29408 5.2884 7.67861L10.1098 12.5L5.2884 17.3214C4.90387 17.7059 4.90387 18.3271 5.2884 18.7116C5.67292 19.0961 6.29408 19.0961 6.67861 18.7116L11.5 13.8902L16.3214 18.7116C16.7059 19.0961 17.3271 19.0961 17.7116 18.7116C18.0961 18.3271 18.0961 17.7059 17.7116 17.3214L12.8902 12.5L17.7116 7.67861C18.0863 7.30394 18.0863 6.67292 17.7116 6.29826Z" fill="#F2F2F2"/>
</g>
<defs>
<clipPath id="clip0_135_280">
<rect width="24" height="24" fill="white"/>
</clipPath>
</defs>
</svg>
